<?xml version="1.0" encoding="utf-8"?>
<!-- Generator: Adobe Illustrator 28.3.0, SVG Export Plug-In . SVG Version: 6.00 Build 0)  -->
<svg version="1.1" id="Layer_1" xmlns="http://www.w3.org/2000/svg" xmlns:xlink="http://www.w3.org/1999/xlink" x="0px" y="0px"
	 viewBox="0 0 198.9 90.3" style="enable-background:new 0 0 198.9 90.3;" xml:space="preserve">
<style type="text/css">
	.st0{fill:#FFFFFF;}
</style>
<g>
	<g>
		<path class="st0" d="M26,42.5l-0.8,6.8h-5.7l-2.6,21.3H9.2l2.6-21.2H6.1L7,42.5H26z"/>
		<path class="st0" d="M43.3,42c8,0,13.3,5.2,13.3,12.7c0,0.7,0,1.3-0.1,1.9c-1.1,8.5-8.2,14.6-16.8,14.6c-8,0-13.3-5.3-13.3-12.6
			c0-0.6,0-1.3,0.1-2C27.6,48.1,34.6,42,43.3,42z M34.3,56.6c-0.5,4.3,2.2,7.6,6.3,7.6c4,0,7.6-3.3,8.1-7.6c0.5-4.2-2.2-7.6-6.2-7.6
			C38.3,49,34.8,52.3,34.3,56.6z"/>
		<path class="st0" d="M75.2,42.5c5.3,0,8.6,3.1,8.6,7.9c0,0.4,0,0.9-0.1,1.3C83,57.6,79.2,61,73.3,61h-4.2l-1.2,9.7h-7.6l3.4-28.1
			H75.2z M71.7,55.3c2.7,0,4.2-1.2,4.4-3.5c0.3-2-0.9-3.2-2.9-3.2h-2.7l-0.8,6.8H71.7z"/>
		<path class="st0" d="M103.4,48.5c-4.2,0-7.8,3.6-8.4,8.5c0,0.4-0.1,0.7-0.1,1.2c0,3.9,2.5,6.7,6.3,6.7c3.1,0,5.5-1.6,6.3-4.4h-6.1
			l0.7-5.7h14.5c0,0.7,0,0.9-0.2,1.3c-1.1,9.3-7.4,15.2-16.2,15.2c-8.1,0-13.3-5.1-13.3-12.5c0-0.7,0-1.3,0.1-2
			c1.1-8.6,8.2-14.9,16.8-14.9c5.5,0,9.7,2.1,12,6.8l-7,3.7C107.6,49.7,105.9,48.5,103.4,48.5z"/>
		<path class="st0" d="M140.5,42.5l-0.7,6.2h-9.2l-0.6,4.7h8.7l-0.7,6h-8.7l-0.6,4.9h9.3l-0.7,6.3h-16.9l3.4-28.1H140.5z"/>
		<path class="st0" d="M162.1,42.5l6.9,28.1H161l-1.1-4.7h-9.8l-2.2,4.7h-8.1l13.8-28.1H162.1z M158.7,60.5l-1.2-6.5l-0.2-1.4
			c-0.2-0.7-0.2-1.3-0.2-2.3v-1.5c-0.4,2.1-0.7,3-1.1,3.9l-0.6,1.4l-2.9,6.5H158.7z"/>
		<path class="st0" d="M186.2,42.5c5.9,0,9.4,2.9,9.4,7.6c0,0.4,0,0.8-0.1,1.2c-0.5,4.1-2.9,6.8-6.9,7.9l6.7,11.4h-9.2l-4.1-8.5
			c-0.5-0.9-0.7-1.6-1.2-3c0,0.5,0,0.9,0,1.4c0,0.7,0,1.2-0.1,2l-1,8.1h-7.6l3.4-28.1H186.2z M183.4,55.3c2.5,0,4.1-1.4,4.4-3.5
			c0.3-2-0.8-3.1-2.9-3.1h-2.4l-0.8,6.7H183.4z"/>
	</g>
	<g>
		<path class="st0" d="M10.2,77.6c1.4,0,2,0.1,2.7,0.4c1.4,0.6,2.1,1.9,2.1,3.7c0,0.3,0,0.6-0.1,0.9c-0.3,2.2-1.4,4.1-3.1,4.8
			c-0.7,0.3-1.4,0.4-2.5,0.4H5.8l1.3-10.2H10.2z M9.3,86c2.1,0,3.2-1.1,3.5-3.3c0-0.2,0-0.5,0-0.7c0-1.5-0.8-2.4-2.7-2.4H9L8.2,86
			H9.3z"/>
		<path class="st0" d="M25.6,77.6c2.2,0,3.3,0.9,3.3,2.6c0,0.2,0,0.3,0,0.4c-0.2,1.6-1.1,2.6-2.8,3l2.6,4.2h-2.7l-1.9-3.5
			c-0.1-0.2-0.3-0.5-0.4-0.9c0,0.5,0,0.5-0.1,1.1l-0.4,3.4h-2.1l1.3-10.2H25.6z M24.7,82.4c1.1,0,1.8-0.6,1.9-1.6
			c0.1-0.8-0.2-1.3-1.2-1.3h-1.1L24,82.4H24.7z"/>
		<path class="st0" d="M38.4,77.6l-1.2,10.2H35l1.3-10.2H38.4z"/>
		<path class="st0" d="M48,83.8c0.1,0.5,0.2,1,0.2,1.8c0.2-0.8,0.3-1.2,0.6-1.8l3-6.2H54l-5.2,10.2h-2l-2.7-10.2h2.3L48,83.8z"/>
		<path class="st0" d="M61.9,77.6l-1.2,10.2h-2.1l1.3-10.2H61.9z"/>
		<path class="st0" d="M71.3,77.6l3.4,5.9c0.2,0.4,0.5,0.9,0.7,1.6c0-0.7,0-1.4,0-1.8l0.7-5.7h2.1L77,87.9h-2.1l-3.5-6.1
			c-0.3-0.5-0.5-0.9-0.8-1.6c0,0.5,0.1,1,0.1,1.4c0,0.2,0,0.4,0,0.5L70,87.9h-2.1l1.3-10.2H71.3z"/>
		<path class="st0" d="M90.2,79.3c-1.8,0-3.3,1.5-3.6,3.5c0,0.2,0,0.3,0,0.5c0,1.6,1.1,2.8,2.8,2.8c1.4,0,2.5-0.8,2.8-2.1h-2.6
			l0.2-1.8h5.1l0,0.3c-0.4,3.4-2.6,5.5-5.7,5.5c-2.9,0-4.8-1.9-4.8-4.6c0-0.2,0-0.5,0-0.7c0.4-3.1,3-5.5,6-5.5
			c1.9,0,3.2,0.7,4.2,2.3l-1.8,1.4C92.2,79.9,91.4,79.3,90.2,79.3z"/>
		<path class="st0" d="M113.3,86.2c0.8,0,1.4-0.5,1.5-1.2c0.1-0.6-0.2-0.9-1-1.2l-0.5-0.2c-1.4-0.5-2.1-1.3-2.1-2.5
			c0-0.1,0-0.3,0-0.4c0.2-1.8,1.9-3.2,3.9-3.2c1.1,0,1.9,0.3,2.6,1.1l-1.3,1.5c-0.4-0.6-0.8-0.8-1.4-0.8c-0.7,0-1.3,0.5-1.4,1.2
			c-0.1,0.6,0.2,0.9,0.9,1.2l0.3,0.1c1.6,0.6,2.3,1.2,2.3,2.5c0,0.2,0,0.4,0,0.6c-0.2,2-1.9,3.3-4,3.3c-1.2,0-2.2-0.4-2.9-1.3
			l1.5-1.6C112.1,85.8,112.6,86.2,113.3,86.2z"/>
		<path class="st0" d="M129.5,79.5c-1.8,0-3.3,1.4-3.5,3.2c0,0.2,0,0.3,0,0.5c0,1.6,1.1,2.8,2.8,2.8c0.9,0,1.7-0.3,2.5-0.9l-0.3,2.4
			l-1,0.4c0,0,0,0-0.1,0c-0.5,0.2-0.9,0.2-1.4,0.2c-2.7,0-4.7-2-4.7-4.6c0-0.2,0-0.4,0-0.7c0.4-3,3-5.3,6.1-5.3c0.8,0,1.3,0.1,2,0.4
			l0.2,0.1l-0.3,2.5C131.1,79.8,130.3,79.5,129.5,79.5z"/>
		<path class="st0" d="M140.9,77.6l-0.5,4.2h4l0.5-4.2h2.2l-1.2,10.2h-2.1l0.5-4.3h-4l-0.5,4.3h-2.1l1.2-10.2H140.9z"/>
		<path class="st0" d="M159.3,77.4c2.8,0,4.8,2,4.8,4.6c0,0.2,0,0.5,0,0.7c-0.4,3-3,5.3-6.1,5.3c-2.8,0-4.8-2-4.8-4.6
			c0-0.2,0-0.5,0-0.7C153.6,79.7,156.2,77.4,159.3,77.4z M155.4,82.8c0,0.2,0,0.3,0,0.4c0,1.6,1.2,2.9,2.8,2.9
			c1.8,0,3.4-1.4,3.6-3.3c0-0.2,0-0.3,0-0.4c0-1.6-1.2-2.9-2.8-2.9C157.2,79.5,155.7,80.9,155.4,82.8z"/>
		<path class="st0" d="M176.5,77.4c2.8,0,4.8,2,4.8,4.6c0,0.2,0,0.5,0,0.7c-0.4,3-3,5.3-6.1,5.3c-2.8,0-4.8-2-4.8-4.6
			c0-0.2,0-0.5,0-0.7C170.9,79.7,173.5,77.4,176.5,77.4z M172.7,82.8c0,0.2,0,0.3,0,0.4c0,1.6,1.2,2.9,2.8,2.9
			c1.8,0,3.4-1.4,3.6-3.3c0-0.2,0-0.3,0-0.4c0-1.6-1.2-2.9-2.8-2.9C174.5,79.5,172.9,80.9,172.7,82.8z"/>
		<path class="st0" d="M190.9,77.6l-1,8.3h3.2l-0.2,1.9h-5.3l1.2-10.2H190.9z"/>
	</g>
	<g>
		<path class="st0" d="M151.6,12.7c9,1.2,17.7,4.5,24.9,10c5.1,3.9,9.3,8.9,12.1,14.5c-4.3,0-8.7,0-13,0
			c-2.2-5.7-6.6-10.2-11.7-13.3c-4.4-2.7-9.4-4.4-14.4-5.5C150.2,16.5,150.9,14.6,151.6,12.7z"/>
		<g>
			<path class="st0" d="M138,21.1c0.9,0,1.8,0,2.7,0c-0.3,0.6-0.6,1.1-1,1.7c-0.5,0-1,0-1.4,0C138.1,22.2,138.1,21.7,138,21.1z"/>
			<path class="st0" d="M134.6,21.4c0.3,0,1-0.1,1.3-0.1c0.1,0.5,0.2,1,0.3,1.6c-0.3,0-0.8,0.1-1,0.1
				C135,22.4,134.8,21.9,134.6,21.4z"/>
			<path class="st0" d="M131.2,21.9c0.5-0.1,1-0.2,1.5-0.3c0.2,0.5,0.4,1,0.5,1.4c-0.3,0-0.9,0.1-1.2,0.2
				C131.7,22.8,131.4,22.4,131.2,21.9z"/>
			<path class="st0" d="M148.3,21.7c0.2,0.1,0.7,0.2,1,0.2c-0.5,0.8-0.8,1.6-1.6,2.1C147.8,23.3,148,22.5,148.3,21.7z"/>
			<path class="st0" d="M127.5,22.8c0.5-0.2,1.1-0.3,1.6-0.5c0.3,0.4,0.5,0.9,0.8,1.3c-0.5,0.1-1,0.2-1.5,0.3
				C128.1,23.5,127.8,23.2,127.5,22.8z"/>
			<path class="st0" d="M151.3,22.4c0.6,0.2,1.1,0.3,1.7,0.5c-0.5,0.6-1.1,1.3-1.6,1.9c-0.4-0.1-0.8-0.2-1.3-0.4
				C150.5,23.7,150.9,23,151.3,22.4z"/>
			<path class="st0" d="M123.4,24.1c0.7-0.2,1.3-0.5,2-0.7c0.3,0.4,0.6,0.7,0.9,1.1c-0.6,0.2-1.2,0.4-1.8,0.6
				C124.2,24.7,123.8,24.4,123.4,24.1z"/>
			<path class="st0" d="M153.4,25.4c0.6-0.7,1.1-1.3,1.7-2c0.7,0.2,1.3,0.5,2,0.7c-0.7,0.6-1.4,1.2-2.1,1.8
				C154.4,25.8,153.9,25.6,153.4,25.4z"/>
			<path class="st0" d="M119.2,26.1c0.8-0.4,1.5-0.8,2.3-1.2c0.3,0.3,0.6,0.6,1,0.9c-0.7,0.3-1.4,0.6-2.1,1
				C119.9,26.6,119.5,26.4,119.2,26.1z"/>
			<path class="st0" d="M156.9,26.9c0.7-0.6,1.5-1.3,2.3-1.9c0.8,0.4,1.5,0.8,2.3,1.2c-0.9,0.5-1.9,1.1-2.8,1.6
				C158,27.6,157.4,27.3,156.9,26.9z"/>
			<path class="st0" d="M114.8,29.1c0.8-0.6,1.6-1.2,2.4-1.8c0.3,0.2,0.7,0.4,1,0.6c-0.8,0.5-1.6,1-2.5,1.6
				C115.5,29.4,115,29.2,114.8,29.1z"/>
			<path class="st0" d="M160.5,29.1c0.9-0.5,1.9-1.1,2.8-1.6c0.8,0.6,1.7,1.2,2.5,1.9c-1.1,0.4-2.2,0.8-3.4,1.2
				C161.8,30,161.2,29.6,160.5,29.1z"/>
			<path class="st0" d="M111.1,33.5c0.3-1.3,1.4-2.9,2.9-2.8C113.1,31.8,112.1,32.7,111.1,33.5z"/>
			<path class="st0" d="M164.2,32c1.1-0.4,2.2-0.8,3.3-1.2c0.8,0.9,1.5,1.8,2.2,2.7c-1.2,0.2-2.4,0.4-3.6,0.6
				C165.4,33.4,164.8,32.7,164.2,32z"/>
			<path class="st0" d="M167.3,35.9c1.2-0.2,2.3-0.4,3.5-0.6c0.3,0.6,0.6,1.3,0.9,1.9c-1.2,0-2.4,0-3.6,0
				C167.9,36.8,167.6,36.4,167.3,35.9z"/>
		</g>
	</g>
	<path class="st0" d="M136.9,31.4L136.9,31.4l-3.2,5.7h7.2c4.3-11.8,8.6-23.6,12.8-35.4C148,11.6,142.5,21.5,136.9,31.4z"/>
	<path class="st0" d="M118.8,17.6c-8.5,4-15.8,10.9-19.4,19.7c0.1,0,0.1,0,0.2,0l-0.2,0L99.1,38c1.6-0.5,3.2-0.7,4.9-0.7
		c0.4,0,1.1,0,1.1,0c2.1-5.1,5.8-9.4,10.4-12.5c7.9-5.3,17.6-7.5,27.1-7.1c0.9-1.9,2.2-3.5,2.8-5.5C136.3,11.9,127,13.5,118.8,17.6z
		"/>
</g>
</svg>
